<?xml version="1.0" encoding="utf-8"?>
<!-- Generator: Adobe Illustrator 21.1.0, SVG Export Plug-In . SVG Version: 6.00 Build 0)  -->
<svg version="1.1" id="Слой_1" xmlns="http://www.w3.org/2000/svg" xmlns:xlink="http://www.w3.org/1999/xlink" x="0px" y="0px"
	 viewBox="0 0 52 46" style="enable-background:new 0 0 52 46;" xml:space="preserve">
<style type="text/css">
	.st0{fill:#F27435;}
</style>
<g>
	<path class="st0" d="M2.4,4.7c0.1-0.5,0.2-0.9,0.5-1.3c0.6-0.8,1.4-1.2,2.4-1.2c1.6,0,3.1,0,4.7,0c7,0,14,0,21.1,0
		c1.4,0,2.6,0.9,2.9,2.3C34,4.7,34,4.9,34,5.1c0,2.6,0,5.2,0,7.7c0,1.3-0.9,2.3-2.2,2.2c-1.2,0-2.1-1-2.1-2.1c0-2.1,0-4.1,0-6.2
		c0-0.1,0-0.2,0-0.3c-7.7,0-15.3,0-23,0c0,10.1,0,20.1,0,30.2c7.7,0,15.3,0,23,0c0-0.1,0-0.2,0-0.3c0-2.1,0-4.1,0-6.2
		c0-1,0.7-1.9,1.7-2.1c1.4-0.3,2.6,0.7,2.6,2.2c0,1.5,0,3,0,4.5c0,1.1,0,2.1,0,3.2c0,1.7-1.2,3-3,3c-8.6,0-17.1,0-25.7,0
		c-1.5,0-2.6-0.9-2.9-2.4c0,0,0-0.1,0-0.1C2.4,27.2,2.4,16,2.4,4.7z"/>
	<path class="st0" d="M48.4,21.9c-0.1,0.7-0.6,1.2-1,1.6c-2.3,2.2-4.5,4.5-6.7,6.7c-0.9,0.9-2.3,0.9-3.1,0c-0.8-0.8-0.8-2.1,0-2.9
		c0.8-0.9,1.7-1.8,2.6-2.6c0.3-0.3,0.6-0.6,0.9-1c-0.1,0-0.2,0-0.3,0c-7.7,0-15.4,0-23,0c-0.9,0-1.6-0.3-2-1.1
		c-0.8-1.4,0.2-3.2,1.8-3.2c0.1,0,0.2,0,0.3,0c7.7,0,15.3,0,23,0c0.1,0,0.2,0,0.3,0c-0.1-0.1-0.1-0.2-0.2-0.2
		c-1.1-1.1-2.2-2.2-3.3-3.3c-1.1-1.1-0.8-2.9,0.6-3.5c0.8-0.4,1.8-0.2,2.5,0.5c0.9,0.9,1.7,1.7,2.6,2.6c1.4,1.4,2.7,2.8,4.1,4.1
		c0.5,0.5,0.9,1,1,1.7C48.4,21.5,48.4,21.7,48.4,21.9z"/>
</g>
</svg>
